HIERARCHY
ROOT Hips
{
	OFFSET 0.000000 88.474243 0.000000
	CHANNELS 6 Xposition Yposition Zposition Zrotation Yrotation Xrotation 
	JOINT Hips_Spine
	{
		OFFSET 0.000000 0.000000 0.000000
		CHANNELS 3 Zrotation Yrotation Xrotation
		JOINT Spine
		{
			OFFSET 0.005100 8.711998 -0.691000
			CHANNELS 3 Zrotation Yrotation Xrotation
			JOINT Spine1
			{
				OFFSET -0.009200 8.660301 -1.275000
				CHANNELS 3 Zrotation Yrotation Xrotation
				JOINT Spine2
				{
					OFFSET 0.006300 9.852501 -1.857000
					CHANNELS 3 Zrotation Yrotation Xrotation
					JOINT Spine2_Neck
					{
						OFFSET 0.000000 0.000000 0.000000
						CHANNELS 3 Zrotation Yrotation Xrotation
						JOINT Neck
						{
							OFFSET 0.016300 11.420799 -0.263300
							CHANNELS 3 Zrotation Yrotation Xrotation
							End Site #name: Head
							{
								OFFSET -0.019200 9.262405 2.362500
							}
						}
					}
					JOINT Spine2_LeftShoulder
					{
						OFFSET 0.000000 0.000000 0.000000
						CHANNELS 3 Zrotation Yrotation Xrotation
						JOINT LeftShoulder
						{
							OFFSET 5.616900 6.732201 -0.345700
							CHANNELS 3 Zrotation Yrotation Xrotation
							JOINT LeftArm
							{
								OFFSET 10.664888 -0.183372 -2.440700
								CHANNELS 3 Zrotation Yrotation Xrotation
								JOINT LeftForeArm
								{
									OFFSET 27.459126 0.000000 0.000000
									CHANNELS 3 Zrotation Yrotation Xrotation
									End Site #name: LeftHand
									{
										OFFSET 21.306858 0.000000 0.000000
									}
								}
							}
						}
					}
					JOINT Spine2_RightShoulder
					{
						OFFSET 0.000000 0.000000 0.000000
						CHANNELS 3 Zrotation Yrotation Xrotation
						JOINT RightShoulder
						{
							OFFSET -5.580300 6.737503 -0.344400
							CHANNELS 3 Zrotation Yrotation Xrotation
							JOINT RightArm
							{
								OFFSET -10.679335 -0.188484 -2.383900
								CHANNELS 3 Zrotation Yrotation Xrotation
								JOINT RightForeArm
								{
									OFFSET -27.503529 0.000000 0.000000
									CHANNELS 3 Zrotation Yrotation Xrotation
									End Site #name: RightHand
									{
										OFFSET -21.306808 0.000000 0.000000
									}
								}
							}
						}
					}
				}
			}
		}
	}
	JOINT Hips_LeftUpLeg
	{
		OFFSET 0.000000 0.000000 0.000000
		CHANNELS 3 Zrotation Yrotation Xrotation
		JOINT LeftUpLeg
		{
			OFFSET 6.857700 -6.739601 0.312100
			CHANNELS 3 Zrotation Yrotation Xrotation
			JOINT LeftLeg
			{
				OFFSET -0.367590 -34.731552 -4.572400
				CHANNELS 3 Zrotation Yrotation Xrotation
				End Site #name: LeftFoot
				{
					OFFSET 0.367590 -34.656704 -6.067400
				}
			}
		}
	}
	JOINT Hips_RightUpLeg
	{
		OFFSET 0.000000 0.000000 0.000000
		CHANNELS 3 Zrotation Yrotation Xrotation
		JOINT RightUpLeg
		{
			OFFSET -6.876100 -6.733299 0.301000
			CHANNELS 3 Zrotation Yrotation Xrotation
			JOINT RightLeg
			{
				OFFSET 0.347353 -34.795158 -4.515900
				CHANNELS 3 Zrotation Yrotation Xrotation
				End Site #name: RightFoot
				{
					OFFSET -0.347353 -34.589367 -6.070300
				}
			}
		}
	}
}
MOTION
Frames: 10
Frame Time: 0.041667
2.699986 -0.223602 -3.675415 175.345916 24.704326 -178.982369 0.000000 -0.000000 0.000000 -1.417042 -2.297035 5.404544 -0.541778 -1.601769 2.510088 0.000000 0.000000 0.000000 0.257366 -1.562039 2.907542 -0.279524 -23.793304 -1.426072 -0.477971 -1.310832 0.692940 0.534838 -4.369560 -0.246326 -83.260659 -23.628519 13.208976 7.443784 -16.783065 3.564325 -0.294750 -2.318289 1.543232 21.275829 14.318525 4.235896 53.358548 17.367946 2.798409 2.084572 41.652306 7.700081 0.000000 0.000000 0.000000 -1.893706 14.784433 -7.144397 0.268272 -36.082448 -14.625294 0.000000 -0.000000 -0.000000 -3.208933 -51.956736 -12.152372 -14.795595 -8.385559 24.742060 
2.730722 -0.217118 -3.768181 175.370406 24.330591 -178.995608 0.000000 -0.000000 0.000000 -1.701424 -2.344516 5.596575 -0.594731 -1.577522 2.453544 0.000000 0.000000 0.000000 0.196380 -1.542213 2.826993 -0.273377 -23.434429 -1.561399 -0.520805 -1.286886 0.670123 0.478795 -4.590580 -0.176317 -82.987404 -24.088400 14.010231 7.425924 -17.492270 3.470434 -0.337947 -2.286561 1.450088 20.967617 14.277084 4.188578 53.288277 17.249222 3.347430 1.526211 41.547739 7.255398 0.000000 0.000000 0.000000 -1.941672 14.647684 -7.416170 0.191974 -36.061653 -14.281210 0.000000 -0.000000 -0.000000 -3.025600 -52.417923 -12.148507 -14.141264 -7.335415 24.648010 
2.760568 -0.205942 -3.857043 175.370947 23.980092 -178.988793 0.000000 -0.000000 0.000000 -1.944034 -2.371035 5.773168 -0.640065 -1.552220 2.399048 0.000000 0.000000 0.000000 0.148165 -1.521462 2.761402 -0.256325 -23.001906 -1.744063 -0.558139 -1.261162 0.659864 0.429464 -4.822585 -0.108152 -82.592996 -24.577737 14.689486 7.409844 -18.612537 3.344663 -0.382260 -2.250753 1.387605 20.648835 14.269043 4.137988 53.227775 17.096814 3.691613 1.010723 41.356509 6.856086 0.000000 0.000000 0.000000 -1.972974 14.488141 -7.740761 0.071476 -35.998336 -13.860363 0.000000 -0.000000 -0.000000 -2.863557 -52.842924 -12.138344 -13.473493 -6.330791 24.481996 
2.791308 -0.190794 -3.942647 175.344926 23.713450 -178.968930 0.000000 -0.000000 0.000000 -2.140436 -2.410981 5.942459 -0.681080 -1.523325 2.354424 0.000000 0.000000 0.000000 0.108072 -1.499249 2.712077 -0.254491 -22.486782 -1.981089 -0.586992 -1.234593 0.665967 0.370458 -5.112322 -0.001059 -82.086315 -25.055397 15.096624 7.402599 -20.188718 3.194544 -0.416203 -2.219306 1.336548 20.347419 14.294717 4.087302 53.174121 16.919644 3.832840 0.545654 41.109257 6.523641 0.000000 0.000000 0.000000 -1.986411 14.318858 -8.114880 -0.088018 -35.859236 -13.373698 0.000000 -0.000000 -0.000000 -2.692211 -53.082590 -12.175134 -12.940456 -5.540388 24.298589 
2.824785 -0.172185 -4.025390 175.292776 23.627883 -178.931493 0.000000 -0.000000 0.000000 -2.273585 -2.462435 6.109363 -0.719377 -1.492597 2.323170 0.000000 0.000000 0.000000 0.073581 -1.474592 2.671052 -0.296551 -21.880106 -2.241511 -0.613090 -1.205311 0.678566 0.330211 -5.445083 0.118998 -81.526148 -25.465078 15.171458 7.434958 -22.181030 3.043195 -0.443404 -2.189133 1.295579 20.085591 14.364689 4.044906 53.109599 16.757103 3.872915 0.098959 40.847860 6.240783 0.000000 0.000000 0.000000 -1.981293 14.151779 -8.544007 -0.285205 -35.632021 -12.824624 0.000000 -0.000000 -0.000000 -2.503887 -53.092042 -12.276773 -12.586251 -4.983039 24.137075 
2.861256 -0.150988 -4.106135 175.201121 23.666149 -178.884336 0.000000 -0.000000 0.000000 -2.379326 -2.509058 6.278216 -0.762413 -1.460375 2.298728 0.000000 0.000000 0.000000 0.037666 -1.448784 2.639276 -0.344998 -21.201738 -2.566254 -0.639987 -1.176310 0.694946 0.307686 -5.839847 0.259521 -80.964676 -25.850810 15.027398 7.474793 -24.429149 2.920991 -0.471717 -2.159635 1.260731 19.860754 14.460159 4.009772 53.048899 16.623791 3.795847 -0.277139 40.674678 6.007427 0.000000 0.000000 0.000000 -1.960574 13.988215 -9.029252 -0.518682 -35.295661 -12.189303 0.000000 -0.000000 -0.000000 -2.301794 -52.936278 -12.427085 -12.291159 -4.529475 23.983280 
2.901139 -0.127901 -4.185633 175.076717 23.761784 -178.834879 0.000000 -0.000000 0.000000 -2.464058 -2.533318 6.454318 -0.812867 -1.428267 2.273105 0.000000 0.000000 0.000000 -0.000947 -1.422223 2.611567 -0.357058 -20.456722 -2.986574 -0.668160 -1.147791 0.711784 0.292275 -6.277178 0.411026 -80.362722 -26.195929 14.738346 7.465488 -26.916035 2.781775 -0.503482 -2.132779 1.226675 19.672304 14.564934 3.978483 52.992962 16.516058 3.621984 -0.640934 40.778174 5.735234 0.000000 0.000000 -0.000000 -1.937910 13.837215 -9.570914 -0.791628 -34.924209 -11.465954 0.000000 -0.000000 -0.000000 -2.097526 -52.714727 -12.618013 -11.985707 -4.039483 23.833393 
2.946203 -0.103024 -4.263422 174.899800 23.650674 -178.781052 0.000000 -0.000000 0.000000 -2.550283 -2.525925 6.631485 -0.864366 -1.394287 2.239740 0.000000 0.000000 0.000000 -0.044394 -1.397316 2.586060 -0.328682 -19.634354 -3.533386 -0.698731 -1.119138 0.729145 0.274316 -6.742326 0.573532 -79.709739 -26.495205 14.331061 7.471318 -29.194554 2.463688 -0.538565 -2.108604 1.193381 19.500817 14.676536 3.947545 52.941842 16.440732 3.364893 -0.913609 40.913819 5.461017 0.000000 0.000000 -0.000000 -1.920832 13.694084 -10.157207 -1.086715 -34.502314 -10.667606 0.000000 -0.000000 -0.000000 -1.896803 -52.605608 -12.859819 -11.717497 -3.451637 23.744207 
2.996657 -0.077178 -4.341338 174.678276 23.126935 -178.714926 0.000000 -0.000000 0.000000 -2.676346 -2.474397 6.816893 -0.918584 -1.365295 2.201910 0.000000 0.000000 0.000000 -0.089084 -1.373340 2.560396 -0.316840 -18.635247 -4.202278 -0.730200 -1.087961 0.743403 0.259113 -7.253219 0.754915 -79.141197 -26.822249 14.052737 7.485647 -31.443353 2.154785 -0.577772 -2.085464 1.155609 19.327951 14.791139 3.915176 52.895889 16.397341 3.048591 -1.000938 41.216867 5.232638 0.000000 0.000000 -0.000000 -1.924088 13.509325 -10.811008 -1.421571 -34.106870 -9.764436 0.000000 -0.000000 -0.000000 -1.704783 -52.631696 -13.105032 -11.421626 -2.672588 23.663186 
3.054109 -0.049331 -4.421184 174.420706 22.043130 -178.635734 0.000000 -0.000000 0.000000 -2.897609 -2.383895 7.017922 -0.973859 -1.346503 2.165831 0.000000 0.000000 0.000000 -0.136099 -1.344510 2.525193 -0.388998 -17.437342 -4.989909 -0.766003 -1.053978 0.752571 0.244148 -7.793423 0.948291 -78.560601 -27.107072 13.718675 7.562190 -34.128736 1.829996 -0.628733 -2.057004 1.104826 19.103397 14.916594 3.862138 52.867194 16.347612 2.731546 -1.171270 41.793017 4.819851 0.000000 0.000000 -0.000000 -1.944464 13.275921 -11.501348 -1.804353 -33.720930 -8.744296 0.000000 -0.000000 -0.000000 -1.564274 -52.849911 -13.287940 -11.061815 -1.690326 23.484860 
